<mxfile host="app.diagrams.net" modified="2022-04-04T11:18:31.811Z" agent="5.0 (Windows NT 10.0; Win64; x64) AppleWebKit/537.36 (KHTML, like Gecko) Chrome/99.0.4844.84 Safari/537.36" etag="4z8px60wkm1RYX9pXf8C" version="17.4.0" type="github">
  <diagram id="faAUpq7gEEYDrj_PNeMS" name="Page-1">
    <mxGraphModel dx="2031" dy="1007" grid="1" gridSize="10" guides="1" tooltips="1" connect="1" arrows="1" fold="1" page="1" pageScale="1" pageWidth="3300" pageHeight="4681" math="0" shadow="0">
      <root>
        <mxCell id="0" />
        <mxCell id="1" parent="0" />
        <mxCell id="r7Nr2WpCQ4XtQ3iXfeHg-12" value="" style="rounded=1;arcSize=10;dashed=0;fillColor=none;gradientColor=none;strokeWidth=2;" vertex="1" parent="1">
          <mxGeometry x="1170" y="320" width="938.25" height="716" as="geometry" />
        </mxCell>
        <mxCell id="r7Nr2WpCQ4XtQ3iXfeHg-17" value="" style="rounded=1;arcSize=10;strokeColor=none;fillColor=#DBDBDB;gradientColor=none;" vertex="1" parent="1">
          <mxGeometry x="1232.5" y="400" width="697.5" height="420" as="geometry" />
        </mxCell>
        <mxCell id="r7Nr2WpCQ4XtQ3iXfeHg-31" style="edgeStyle=orthogonalEdgeStyle;rounded=0;orthogonalLoop=1;jettySize=auto;html=1;entryX=0;entryY=0.5;entryDx=0;entryDy=0;entryPerimeter=0;" edge="1" parent="1" source="r7Nr2WpCQ4XtQ3iXfeHg-2" target="r7Nr2WpCQ4XtQ3iXfeHg-3">
          <mxGeometry relative="1" as="geometry" />
        </mxCell>
        <mxCell id="r7Nr2WpCQ4XtQ3iXfeHg-2" value="" style="shape=image;html=1;verticalAlign=top;verticalLabelPosition=bottom;labelBackgroundColor=#ffffff;imageAspect=0;aspect=fixed;image=https://cdn4.iconfinder.com/data/icons/socialcones/508/Github-128.png" vertex="1" parent="1">
          <mxGeometry x="1000" y="380" width="88" height="88" as="geometry" />
        </mxCell>
        <mxCell id="r7Nr2WpCQ4XtQ3iXfeHg-18" style="edgeStyle=orthogonalEdgeStyle;rounded=0;orthogonalLoop=1;jettySize=auto;html=1;exitX=1;exitY=0.5;exitDx=0;exitDy=0;exitPerimeter=0;" edge="1" parent="1" source="r7Nr2WpCQ4XtQ3iXfeHg-3" target="r7Nr2WpCQ4XtQ3iXfeHg-4">
          <mxGeometry relative="1" as="geometry" />
        </mxCell>
        <mxCell id="r7Nr2WpCQ4XtQ3iXfeHg-3" value="" style="outlineConnect=0;dashed=0;verticalLabelPosition=bottom;verticalAlign=top;align=center;html=1;shape=mxgraph.aws3.codebuild;fillColor=#759C3E;gradientColor=none;" vertex="1" parent="1">
          <mxGeometry x="1270" y="475" width="76.5" height="93" as="geometry" />
        </mxCell>
        <mxCell id="r7Nr2WpCQ4XtQ3iXfeHg-19" style="edgeStyle=orthogonalEdgeStyle;rounded=0;orthogonalLoop=1;jettySize=auto;html=1;" edge="1" parent="1" source="r7Nr2WpCQ4XtQ3iXfeHg-4">
          <mxGeometry relative="1" as="geometry">
            <mxPoint x="1543.75" y="680" as="targetPoint" />
          </mxGeometry>
        </mxCell>
        <mxCell id="r7Nr2WpCQ4XtQ3iXfeHg-4" value="" style="outlineConnect=0;dashed=0;verticalLabelPosition=bottom;verticalAlign=top;align=center;html=1;shape=mxgraph.aws3.codedeploy;fillColor=#759C3E;gradientColor=none;" vertex="1" parent="1">
          <mxGeometry x="1510" y="481" width="67.5" height="81" as="geometry" />
        </mxCell>
        <mxCell id="r7Nr2WpCQ4XtQ3iXfeHg-20" style="edgeStyle=orthogonalEdgeStyle;rounded=0;orthogonalLoop=1;jettySize=auto;html=1;exitX=1;exitY=0.5;exitDx=0;exitDy=0;entryX=0.1;entryY=0.5;entryDx=0;entryDy=0;entryPerimeter=0;" edge="1" parent="1" source="r7Nr2WpCQ4XtQ3iXfeHg-30" target="r7Nr2WpCQ4XtQ3iXfeHg-8">
          <mxGeometry relative="1" as="geometry">
            <mxPoint x="1582" y="726.4999999999998" as="sourcePoint" />
          </mxGeometry>
        </mxCell>
        <mxCell id="r7Nr2WpCQ4XtQ3iXfeHg-21" style="edgeStyle=orthogonalEdgeStyle;rounded=0;orthogonalLoop=1;jettySize=auto;html=1;" edge="1" parent="1" target="r7Nr2WpCQ4XtQ3iXfeHg-10">
          <mxGeometry relative="1" as="geometry">
            <mxPoint x="1450" y="726" as="sourcePoint" />
          </mxGeometry>
        </mxCell>
        <mxCell id="r7Nr2WpCQ4XtQ3iXfeHg-6" value="" style="outlineConnect=0;dashed=0;verticalLabelPosition=bottom;verticalAlign=top;align=center;html=1;shape=mxgraph.aws3.iam;fillColor=#759C3E;gradientColor=none;" vertex="1" parent="1">
          <mxGeometry x="1852.5" y="400" width="42" height="81" as="geometry" />
        </mxCell>
        <mxCell id="r7Nr2WpCQ4XtQ3iXfeHg-7" value="" style="outlineConnect=0;dashed=0;verticalLabelPosition=bottom;verticalAlign=top;align=center;html=1;shape=mxgraph.aws3.codepipeline;fillColor=#759C3E;gradientColor=none;" vertex="1" parent="1">
          <mxGeometry x="1510" y="360" width="67.5" height="81" as="geometry" />
        </mxCell>
        <mxCell id="r7Nr2WpCQ4XtQ3iXfeHg-8" value="" style="outlineConnect=0;dashed=0;verticalLabelPosition=bottom;verticalAlign=top;align=center;html=1;shape=mxgraph.aws3.cloudwatch;fillColor=#759C3E;gradientColor=none;" vertex="1" parent="1">
          <mxGeometry x="1750" y="678.5" width="82.5" height="93" as="geometry" />
        </mxCell>
        <mxCell id="r7Nr2WpCQ4XtQ3iXfeHg-25" style="edgeStyle=orthogonalEdgeStyle;rounded=0;orthogonalLoop=1;jettySize=auto;html=1;entryX=0;entryY=0.48;entryDx=0;entryDy=0;entryPerimeter=0;" edge="1" parent="1" source="r7Nr2WpCQ4XtQ3iXfeHg-9" target="r7Nr2WpCQ4XtQ3iXfeHg-23">
          <mxGeometry relative="1" as="geometry" />
        </mxCell>
        <mxCell id="r7Nr2WpCQ4XtQ3iXfeHg-9" value="" style="outlineConnect=0;dashed=0;verticalLabelPosition=bottom;verticalAlign=top;align=center;html=1;shape=mxgraph.aws3.lambda;fillColor=#F58534;gradientColor=none;" vertex="1" parent="1">
          <mxGeometry x="1490" y="910" width="76.5" height="93" as="geometry" />
        </mxCell>
        <mxCell id="r7Nr2WpCQ4XtQ3iXfeHg-22" style="edgeStyle=orthogonalEdgeStyle;rounded=0;orthogonalLoop=1;jettySize=auto;html=1;entryX=0;entryY=0.5;entryDx=0;entryDy=0;entryPerimeter=0;" edge="1" parent="1" source="r7Nr2WpCQ4XtQ3iXfeHg-10" target="r7Nr2WpCQ4XtQ3iXfeHg-9">
          <mxGeometry relative="1" as="geometry" />
        </mxCell>
        <mxCell id="r7Nr2WpCQ4XtQ3iXfeHg-10" value="" style="outlineConnect=0;dashed=0;verticalLabelPosition=bottom;verticalAlign=top;align=center;html=1;shape=mxgraph.aws3.api_gateway;fillColor=#D9A741;gradientColor=none;" vertex="1" parent="1">
          <mxGeometry x="1270" y="910" width="76.5" height="93" as="geometry" />
        </mxCell>
        <mxCell id="r7Nr2WpCQ4XtQ3iXfeHg-11" value="" style="outlineConnect=0;dashed=0;verticalLabelPosition=bottom;verticalAlign=top;align=center;html=1;shape=mxgraph.aws3.cloud_2;fillColor=#F58534;gradientColor=none;" vertex="1" parent="1">
          <mxGeometry x="1260" y="260" width="75" height="75" as="geometry" />
        </mxCell>
        <mxCell id="r7Nr2WpCQ4XtQ3iXfeHg-13" value="" style="dashed=0;html=1;shape=mxgraph.aws3.cloud;fillColor=#F58536;gradientColor=none;dashed=0;" vertex="1" parent="1">
          <mxGeometry x="1250" y="382.5" width="52" height="36" as="geometry" />
        </mxCell>
        <mxCell id="r7Nr2WpCQ4XtQ3iXfeHg-23" value="" style="outlineConnect=0;dashed=0;verticalLabelPosition=bottom;verticalAlign=top;align=center;html=1;shape=mxgraph.aws3.sns;fillColor=#D9A741;gradientColor=none;" vertex="1" parent="1">
          <mxGeometry x="1776" y="918.25" width="76.5" height="76.5" as="geometry" />
        </mxCell>
        <mxCell id="r7Nr2WpCQ4XtQ3iXfeHg-26" value="" style="endArrow=classic;html=1;rounded=0;" edge="1" parent="1" source="r7Nr2WpCQ4XtQ3iXfeHg-23" target="r7Nr2WpCQ4XtQ3iXfeHg-29">
          <mxGeometry relative="1" as="geometry">
            <mxPoint x="1880" y="955.79" as="sourcePoint" />
            <mxPoint x="1980" y="955.79" as="targetPoint" />
          </mxGeometry>
        </mxCell>
        <mxCell id="r7Nr2WpCQ4XtQ3iXfeHg-27" value="" style="shape=message;html=1;outlineConnect=0;" vertex="1" parent="r7Nr2WpCQ4XtQ3iXfeHg-26">
          <mxGeometry width="20" height="14" relative="1" as="geometry">
            <mxPoint x="-10" y="-7" as="offset" />
          </mxGeometry>
        </mxCell>
        <mxCell id="r7Nr2WpCQ4XtQ3iXfeHg-29" value="" style="outlineConnect=0;dashed=0;verticalLabelPosition=bottom;verticalAlign=top;align=center;html=1;shape=mxgraph.aws3.email;fillColor=#D9A741;gradientColor=none;" vertex="1" parent="1">
          <mxGeometry x="2270" y="640" width="81" height="61.5" as="geometry" />
        </mxCell>
        <mxCell id="r7Nr2WpCQ4XtQ3iXfeHg-30" value="EC2 instance contents" style="points=[[0,0],[0.25,0],[0.5,0],[0.75,0],[1,0],[1,0.25],[1,0.5],[1,0.75],[1,1],[0.75,1],[0.5,1],[0.25,1],[0,1],[0,0.75],[0,0.5],[0,0.25]];outlineConnect=0;gradientColor=none;html=1;whiteSpace=wrap;fontSize=12;fontStyle=0;container=1;pointerEvents=0;collapsible=0;recursiveResize=0;shape=mxgraph.aws4.group;grIcon=mxgraph.aws4.group_ec2_instance_contents;strokeColor=#D86613;fillColor=none;verticalAlign=top;align=left;spacingLeft=30;fontColor=#D86613;dashed=0;" vertex="1" parent="1">
          <mxGeometry x="1450" y="670" width="170" height="110" as="geometry" />
        </mxCell>
        <mxCell id="r7Nr2WpCQ4XtQ3iXfeHg-1" value="" style="aspect=fixed;html=1;points=[];align=center;image;fontSize=12;image=img/lib/azure2/compute/Azure_Spring_Cloud.svg;" vertex="1" parent="r7Nr2WpCQ4XtQ3iXfeHg-30">
          <mxGeometry x="90" y="40" width="55.5" height="52.24" as="geometry" />
        </mxCell>
        <mxCell id="r7Nr2WpCQ4XtQ3iXfeHg-32" value="" style="sketch=0;outlineConnect=0;fontColor=#232F3E;gradientColor=none;fillColor=#B0084D;strokeColor=none;dashed=0;verticalLabelPosition=bottom;verticalAlign=top;align=center;html=1;fontSize=12;fontStyle=0;aspect=fixed;pointerEvents=1;shape=mxgraph.aws4.endpoint;" vertex="1" parent="1">
          <mxGeometry x="1472" y="720" width="38" height="38" as="geometry" />
        </mxCell>
        <mxCell id="r7Nr2WpCQ4XtQ3iXfeHg-35" style="edgeStyle=orthogonalEdgeStyle;rounded=0;orthogonalLoop=1;jettySize=auto;html=1;" edge="1" parent="1" source="r7Nr2WpCQ4XtQ3iXfeHg-33" target="r7Nr2WpCQ4XtQ3iXfeHg-1">
          <mxGeometry relative="1" as="geometry" />
        </mxCell>
        <mxCell id="r7Nr2WpCQ4XtQ3iXfeHg-33" value="AWS Secrets Manager" style="sketch=0;outlineConnect=0;fontColor=#232F3E;gradientColor=none;strokeColor=#ffffff;fillColor=#232F3E;dashed=0;verticalLabelPosition=middle;verticalAlign=bottom;align=center;html=1;whiteSpace=wrap;fontSize=10;fontStyle=1;spacing=3;shape=mxgraph.aws4.productIcon;prIcon=mxgraph.aws4.secrets_manager;" vertex="1" parent="1">
          <mxGeometry x="1980" y="510" width="80" height="110" as="geometry" />
        </mxCell>
      </root>
    </mxGraphModel>
  </diagram>
</mxfile>
